The Hunt For Red October 1990 BluRay 1080p ac3-LoNeWoLf

Encoded by Tequila-Bob a.k.a. bobnjeff a.k.a.LoNeWoLf
 
http://www.imdb.com/title/tt0099810/

The Hunt for Red October (1990) 
  134 min  -  Action | Adventure | Thriller   -  2 March 1990 (USA) 
    1  7.6/10 X  Users: 7.6/10 (56,018 votes) 201 reviews | Critics: 82 reviews 
In 1984, the USSR's best submarine captain in their newest sub violates orders and heads for the USA. Is he trying to defect, or to start a war? 


Director: John McTiernan
Writers: Tom Clancy (novel), Larry Ferguson (screenplay), and 1 more credit » 
Stars:Sean Connery, Alec Baldwin and Scott Glenn

Genres:Action | Adventure | Thriller

Release Date:2 March 1990 (USA)

Rated PG-13 for intense sequences of war violence and some language

Storyline
Soviets create a new nuclear submarine that runs silent due to a revolutionary propulsion system. Russian sub captain defects, goal of taking it to the U.S.A. to prevent the Russians from using the sub to wreak nuclear (missile) war against the U.S. Lots of plot turns and twists in this high-tech thriller

Cast
Cast overview, first billed only: 
  Sean Connery  ...  Marko Ramius  
  Alec Baldwin  ...  Jack Ryan  
  Scott Glenn  ...  Bart Mancuso  
  Sam Neill  ...  Captain Borodin  
  James Earl Jones  ...  Admiral Greer  
  Joss Ackland  ...  Andrei Lysenko  
  Richard Jordan  ...  Jeffrey Pelt  
  Peter Firth  ...  Ivan Putin  
  Tim Curry  ...  Dr. Petrov  
  Courtney B. Vance  ...  Seaman Jones  
  Stellan Skarsgård  ...  Captain Tupolev  
  Jeffrey Jones  ...  Skip Tyler  
  Timothy Carhart  ...  Bill Steiner  
  Larry Ferguson  ...  Chief of the Boat  
  Fred Dalton Thompson  ...  Admiral Painter 

[img]http://torrent-stats.info/cb59/d763c841.png[/img]

See the full size 1920x816 PNG files at the link below

 
http://s1015.photobucket.com/albums/af279/tequila-bob/The%20Hunt%20For%20Red%20October%201990/



Format : Matroska 
File size : 8.00 GiB 
Duration : 2h 15mn 
Overall bit rate : 8 476 Kbps 
Encoded date : UTC 2010-12-03 01:58:42 
Writing application : mkvmerge v4.4.0 ('Die Wiederkehr') built on Oct 31 2010 21:52:48 
Writing library : libebml v1.0.0 + libmatroska v1.0.0 

Video 
ID : 1 
Format : AVC 
Format/Info : Advanced Video Codec 
Format profile : High@L4.1 
Format settings, CABAC : Yes 
Format settings, ReFrames : 7 frames 
Muxing mode : Container profile=Unknown@4.1 
Codec ID : V_MPEG4/ISO/AVC 
Duration : 2h 15mn 
Bit rate : 7 783 Kbps 
Width : 1 920 pixels 
Height : 816 pixels 
Display aspect ratio : 2.35:1 
Frame rate : 23.976 fps 
Color space : YUV 
Chroma subsampling : 4:2:0 
Bit depth : 8 bits 
Scan type : Progressive 
Bits/(Pixel*Frame) : 0.207 
Stream size : 7.24 GiB (90%) 
Writing library : x264 core 98 r1649 c54c47d 
Encoding settings : cabac=1 / ref=8 / deblock=1:0:0 / analyse=0x3:0x133 / me=umh / subme=7 / psy=1 / psy_rd=1.00:0.15 / mixed_ref=1 / me_range=24 / chroma_me=1 / trellis=1 / 8x8dct=1 / cqm=0 / deadzone=21,11 / fast_pskip=1 / chroma_qp_offset=-3 / threads=6 / sliced_threads=0 / nr=0 / decimate=1 / interlaced=0 / constrained_intra=0 / bframes=5 / b_pyramid=1 / b_adapt=1 / b_bias=0 / direct=1 / weightb=1 / weightp=2 / keyint=250 / keyint_min=25 / scenecut=40 / intra_refresh=0 / rc_lookahead=50 / rc=2pass / mbtree=1 / bitrate=7783 / ratetol=1.0 / qcomp=0.60 / qpmin=10 / qpmax=51 / qpstep=4 / cplxblur=20.0 / qblur=0.5 / ip_ratio=1.40 / aq=1:1.50 
Language : English 

Audio 
ID : 2 
Format : AC-3 
Format/Info : Audio Coding 3 
Mode extension : CM (complete main) 
Codec ID : A_AC3 
Duration : 2h 15mn 
Bit rate mode : Constant 
Bit rate : 640 Kbps 
Channel(s) : 6 channels 
Channel positions : Front: L C R, Side: L R, LFE 
Sampling rate : 48.0 KHz 
Bit depth : 16 bits 
Stream size : 619 MiB (8%) 
Title : 3/2+1 
Language : English 

Text  
Language : English 
Language : English 
Language : English 
Language : French 
Language : French 
Language : Spanish 
Language : Portuguese 

Menu - Chapters 12



See the full size 1920x816 PNG files at the link below

 
http://s1015.photobucket.com/albums/af279/tequila-bob/The%20Hunt%20For%20Red%20October%201990/

